<svg width="128" height="128" viewBox="0 0 128 128" fill="none" xmlns="http://www.w3.org/2000/svg">
<mask id="path-1-outside-1_87_401" maskUnits="userSpaceOnUse" x="21" y="28" width="88" height="72" fill="black">
<rect fill="white" x="21" y="28" width="88" height="72"/>
<path d="M22.2802 58V30H34.4002C36.9068 30 39.0668 30.4133 40.8802 31.24C42.6935 32.04 44.0935 33.2 45.0802 34.72C46.0668 36.24 46.5602 38.0533 46.5602 40.16C46.5602 42.24 46.0668 44.04 45.0802 45.56C44.0935 47.08 42.6935 48.2533 40.8802 49.08C39.0668 49.88 36.9068 50.28 34.4002 50.28H25.8802L28.7602 47.36V58H22.2802ZM28.7602 48.08L25.8802 45H34.0402C36.0402 45 37.5335 44.5733 38.5202 43.72C39.5068 42.8667 40.0002 41.68 40.0002 40.16C40.0002 38.6133 39.5068 37.4133 38.5202 36.56C37.5335 35.7067 36.0402 35.28 34.0402 35.28H25.8802L28.7602 32.2V48.08ZM50.3864 58V30H62.5064C65.0131 30 67.1731 30.4133 68.9864 31.24C70.7997 32.04 72.1997 33.2 73.1864 34.72C74.1731 36.24 74.6664 38.0533 74.6664 40.16C74.6664 42.24 74.1731 44.04 73.1864 45.56C72.1997 47.0533 70.7997 48.2 68.9864 49C67.1731 49.8 65.0131 50.2 62.5064 50.2H53.9864L56.8664 47.36V58H50.3864ZM68.1864 58L61.1864 47.84H68.1064L75.1864 58H68.1864ZM56.8664 48.08L53.9864 45.04H62.1464C64.1464 45.04 65.6397 44.6133 66.6264 43.76C67.6131 42.88 68.1064 41.68 68.1064 40.16C68.1064 38.6133 67.6131 37.4133 66.6264 36.56C65.6397 35.7067 64.1464 35.28 62.1464 35.28H53.9864L56.8664 32.2V48.08ZM92.6005 58.48C90.3871 58.48 88.3338 58.12 86.4405 57.4C84.5738 56.68 82.9471 55.6667 81.5605 54.36C80.2005 53.0533 79.1338 51.52 78.3605 49.76C77.6138 48 77.2405 46.08 77.2405 44C77.2405 41.92 77.6138 40 78.3605 38.24C79.1338 36.48 80.2138 34.9467 81.6005 33.64C82.9871 32.3333 84.6138 31.32 86.4805 30.6C88.3471 29.88 90.3738 29.52 92.5605 29.52C94.7738 29.52 96.8005 29.88 98.6405 30.6C100.507 31.32 102.12 32.3333 103.48 33.64C104.867 34.9467 105.947 36.48 106.72 38.24C107.494 39.9733 107.88 41.8933 107.88 44C107.88 46.08 107.494 48.0133 106.72 49.8C105.947 51.56 104.867 53.0933 103.48 54.4C102.12 55.68 100.507 56.68 98.6405 57.4C96.8005 58.12 94.7871 58.48 92.6005 58.48ZM92.5605 52.96C93.8138 52.96 94.9605 52.7467 96.0005 52.32C97.0671 51.8933 98.0005 51.28 98.8005 50.48C99.6005 49.68 100.214 48.7333 100.64 47.64C101.094 46.5467 101.32 45.3333 101.32 44C101.32 42.6667 101.094 41.4533 100.64 40.36C100.214 39.2667 99.6005 38.32 98.8005 37.52C98.0271 36.72 97.1071 36.1067 96.0405 35.68C94.9738 35.2533 93.8138 35.04 92.5605 35.04C91.3071 35.04 90.1471 35.2533 89.0805 35.68C88.0405 36.1067 87.1205 36.72 86.3205 37.52C85.5205 38.32 84.8938 39.2667 84.4405 40.36C84.0138 41.4533 83.8005 42.6667 83.8005 44C83.8005 45.3067 84.0138 46.52 84.4405 47.64C84.8938 48.7333 85.5071 49.68 86.2805 50.48C87.0805 51.28 88.0138 51.8933 89.0805 52.32C90.1471 52.7467 91.3071 52.96 92.5605 52.96ZM31.713 98V75.28H22.753V70H47.153V75.28H38.193V98H31.713ZM44.7533 98L57.2333 70H63.6333L76.1533 98H69.3533L59.1133 73.28H61.6733L51.3933 98H44.7533ZM50.9933 92L52.7133 87.08H67.1133L68.8733 92H50.9933ZM91.3877 98.48C89.1743 98.48 87.1343 98.1333 85.2677 97.44C83.4277 96.72 81.8143 95.7067 80.4277 94.4C79.0677 93.0933 78.001 91.56 77.2277 89.8C76.481 88.04 76.1077 86.1067 76.1077 84C76.1077 81.8933 76.481 79.96 77.2277 78.2C78.001 76.44 79.081 74.9067 80.4677 73.6C81.8543 72.2933 83.481 71.2933 85.3477 70.6C87.2143 69.88 89.2677 69.52 91.5077 69.52C93.9877 69.52 96.2143 69.9333 98.1877 70.76C100.188 71.5867 101.868 72.7867 103.228 74.36L99.0677 78.2C98.0543 77.1333 96.9477 76.3467 95.7477 75.84C94.5477 75.3067 93.241 75.04 91.8277 75.04C90.4677 75.04 89.2277 75.2533 88.1077 75.68C86.9877 76.1067 86.0143 76.72 85.1877 77.52C84.3877 78.32 83.761 79.2667 83.3077 80.36C82.881 81.4533 82.6677 82.6667 82.6677 84C82.6677 85.3067 82.881 86.5067 83.3077 87.6C83.761 88.6933 84.3877 89.6533 85.1877 90.48C86.0143 91.28 86.9743 91.8933 88.0677 92.32C89.1877 92.7467 90.4143 92.96 91.7477 92.96C93.0277 92.96 94.2677 92.76 95.4677 92.36C96.6943 91.9333 97.881 91.2267 99.0277 90.24L102.708 94.92C101.188 96.0667 99.4143 96.9467 97.3877 97.56C95.3877 98.1733 93.3877 98.48 91.3877 98.48ZM96.7877 94.08V83.56H102.708V94.92L96.7877 94.08Z"/>
</mask>
<path d="M22.2802 58V30H34.4002C36.9068 30 39.0668 30.4133 40.8802 31.24C42.6935 32.04 44.0935 33.2 45.0802 34.72C46.0668 36.24 46.5602 38.0533 46.5602 40.16C46.5602 42.24 46.0668 44.04 45.0802 45.56C44.0935 47.08 42.6935 48.2533 40.8802 49.08C39.0668 49.88 36.9068 50.28 34.4002 50.28H25.8802L28.7602 47.36V58H22.2802ZM28.7602 48.08L25.8802 45H34.0402C36.0402 45 37.5335 44.5733 38.5202 43.72C39.5068 42.8667 40.0002 41.68 40.0002 40.16C40.0002 38.6133 39.5068 37.4133 38.5202 36.56C37.5335 35.7067 36.0402 35.28 34.0402 35.28H25.8802L28.7602 32.2V48.08ZM50.3864 58V30H62.5064C65.0131 30 67.1731 30.4133 68.9864 31.24C70.7997 32.04 72.1997 33.2 73.1864 34.72C74.1731 36.24 74.6664 38.0533 74.6664 40.16C74.6664 42.24 74.1731 44.04 73.1864 45.56C72.1997 47.0533 70.7997 48.2 68.9864 49C67.1731 49.8 65.0131 50.2 62.5064 50.2H53.9864L56.8664 47.36V58H50.3864ZM68.1864 58L61.1864 47.84H68.1064L75.1864 58H68.1864ZM56.8664 48.08L53.9864 45.04H62.1464C64.1464 45.04 65.6397 44.6133 66.6264 43.76C67.6131 42.88 68.1064 41.68 68.1064 40.16C68.1064 38.6133 67.6131 37.4133 66.6264 36.56C65.6397 35.7067 64.1464 35.28 62.1464 35.28H53.9864L56.8664 32.2V48.08ZM92.6005 58.48C90.3871 58.48 88.3338 58.12 86.4405 57.4C84.5738 56.68 82.9471 55.6667 81.5605 54.36C80.2005 53.0533 79.1338 51.52 78.3605 49.76C77.6138 48 77.2405 46.08 77.2405 44C77.2405 41.92 77.6138 40 78.3605 38.24C79.1338 36.48 80.2138 34.9467 81.6005 33.64C82.9871 32.3333 84.6138 31.32 86.4805 30.6C88.3471 29.88 90.3738 29.52 92.5605 29.52C94.7738 29.52 96.8005 29.88 98.6405 30.6C100.507 31.32 102.12 32.3333 103.48 33.64C104.867 34.9467 105.947 36.48 106.72 38.24C107.494 39.9733 107.88 41.8933 107.88 44C107.88 46.08 107.494 48.0133 106.72 49.8C105.947 51.56 104.867 53.0933 103.48 54.4C102.12 55.68 100.507 56.68 98.6405 57.4C96.8005 58.12 94.7871 58.48 92.6005 58.48ZM92.5605 52.96C93.8138 52.96 94.9605 52.7467 96.0005 52.32C97.0671 51.8933 98.0005 51.28 98.8005 50.48C99.6005 49.68 100.214 48.7333 100.64 47.64C101.094 46.5467 101.32 45.3333 101.32 44C101.32 42.6667 101.094 41.4533 100.64 40.36C100.214 39.2667 99.6005 38.32 98.8005 37.52C98.0271 36.72 97.1071 36.1067 96.0405 35.68C94.9738 35.2533 93.8138 35.04 92.5605 35.04C91.3071 35.04 90.1471 35.2533 89.0805 35.68C88.0405 36.1067 87.1205 36.72 86.3205 37.52C85.5205 38.32 84.8938 39.2667 84.4405 40.36C84.0138 41.4533 83.8005 42.6667 83.8005 44C83.8005 45.3067 84.0138 46.52 84.4405 47.64C84.8938 48.7333 85.5071 49.68 86.2805 50.48C87.0805 51.28 88.0138 51.8933 89.0805 52.32C90.1471 52.7467 91.3071 52.96 92.5605 52.96ZM31.713 98V75.28H22.753V70H47.153V75.28H38.193V98H31.713ZM44.7533 98L57.2333 70H63.6333L76.1533 98H69.3533L59.1133 73.28H61.6733L51.3933 98H44.7533ZM50.9933 92L52.7133 87.08H67.1133L68.8733 92H50.9933ZM91.3877 98.48C89.1743 98.48 87.1343 98.1333 85.2677 97.44C83.4277 96.72 81.8143 95.7067 80.4277 94.4C79.0677 93.0933 78.001 91.56 77.2277 89.8C76.481 88.04 76.1077 86.1067 76.1077 84C76.1077 81.8933 76.481 79.96 77.2277 78.2C78.001 76.44 79.081 74.9067 80.4677 73.6C81.8543 72.2933 83.481 71.2933 85.3477 70.6C87.2143 69.88 89.2677 69.52 91.5077 69.52C93.9877 69.52 96.2143 69.9333 98.1877 70.76C100.188 71.5867 101.868 72.7867 103.228 74.36L99.0677 78.2C98.0543 77.1333 96.9477 76.3467 95.7477 75.84C94.5477 75.3067 93.241 75.04 91.8277 75.04C90.4677 75.04 89.2277 75.2533 88.1077 75.68C86.9877 76.1067 86.0143 76.72 85.1877 77.52C84.3877 78.32 83.761 79.2667 83.3077 80.36C82.881 81.4533 82.6677 82.6667 82.6677 84C82.6677 85.3067 82.881 86.5067 83.3077 87.6C83.761 88.6933 84.3877 89.6533 85.1877 90.48C86.0143 91.28 86.9743 91.8933 88.0677 92.32C89.1877 92.7467 90.4143 92.96 91.7477 92.96C93.0277 92.96 94.2677 92.76 95.4677 92.36C96.6943 91.9333 97.881 91.2267 99.0277 90.24L102.708 94.92C101.188 96.0667 99.4143 96.9467 97.3877 97.56C95.3877 98.1733 93.3877 98.48 91.3877 98.48ZM96.7877 94.08V83.56H102.708V94.92L96.7877 94.08Z" fill="black"/>
<path d="M22.2802 58H21.2802V59H22.2802V58ZM22.2802 30V29H21.2802V30H22.2802ZM40.8802 31.24L40.4653 32.15L40.4765 32.1549L40.8802 31.24ZM45.0802 34.72L44.2414 35.2645L45.0802 34.72ZM40.8802 49.08L41.2838 49.995L41.295 49.9899L40.8802 49.08ZM25.8802 50.28L25.1682 49.5778L23.4893 51.28H25.8802V50.28ZM28.7602 47.36H29.7602V44.922L28.0482 46.6578L28.7602 47.36ZM28.7602 58V59H29.7602V58H28.7602ZM28.7602 48.08L28.0297 48.763L29.7602 50.6136V48.08H28.7602ZM25.8802 45V44H23.576L25.1497 45.683L25.8802 45ZM25.8802 35.28L25.1497 34.597L23.576 36.28H25.8802V35.28ZM28.7602 32.2H29.7602V29.6664L28.0297 31.517L28.7602 32.2ZM23.2802 58V30H21.2802V58H23.2802ZM22.2802 31H34.4002V29H22.2802V31ZM34.4002 31C36.7995 31 38.8113 31.3958 40.4653 32.1499L41.295 30.3301C39.3224 29.4308 37.0142 29 34.4002 29V31ZM40.4765 32.1549C42.1292 32.8841 43.3705 33.9229 44.2414 35.2645L45.9189 34.1755C44.8165 32.4771 43.2578 31.1959 41.2838 30.3251L40.4765 32.1549ZM44.2414 35.2645C45.1066 36.5974 45.5602 38.2145 45.5602 40.16H47.5602C47.5602 37.8922 47.027 35.8826 45.9189 34.1755L44.2414 35.2645ZM45.5602 40.16C45.5602 42.076 45.1079 43.6806 44.2414 45.0155L45.9189 46.1045C47.0257 44.3994 47.5602 42.4039 47.5602 40.16H45.5602ZM44.2414 45.0155C43.3686 46.3601 42.1234 47.4142 40.4653 48.1701L41.295 49.9899C43.2636 49.0924 44.8184 47.7999 45.9189 46.1045L44.2414 45.0155ZM40.4765 48.1651C38.8193 48.8962 36.8034 49.28 34.4002 49.28V51.28C37.0103 51.28 39.3144 50.8638 41.2838 49.9949L40.4765 48.1651ZM34.4002 49.28H25.8802V51.28H34.4002V49.28ZM26.5921 50.9822L29.4721 48.0622L28.0482 46.6578L25.1682 49.5778L26.5921 50.9822ZM27.7602 47.36V58H29.7602V47.36H27.7602ZM28.7602 57H22.2802V59H28.7602V57ZM29.4906 47.397L26.6106 44.317L25.1497 45.683L28.0297 48.763L29.4906 47.397ZM25.8802 46H34.0402V44H25.8802V46ZM34.0402 46C36.1575 46 37.9307 45.5519 39.1743 44.4764L37.866 42.9636C37.1363 43.5947 35.9228 44 34.0402 44V46ZM39.1743 44.4764C40.4178 43.4009 41.0002 41.9173 41.0002 40.16H39.0002C39.0002 41.4427 38.5959 42.3324 37.866 42.9636L39.1743 44.4764ZM41.0002 40.16C41.0002 38.3823 40.4218 36.8826 39.1743 35.8036L37.866 37.3164C38.5918 37.9441 39.0002 38.8444 39.0002 40.16H41.0002ZM39.1743 35.8036C37.9307 34.7281 36.1575 34.28 34.0402 34.28V36.28C35.9228 36.28 37.1363 36.6853 37.866 37.3164L39.1743 35.8036ZM34.0402 34.28H25.8802V36.28H34.0402V34.28ZM26.6106 35.963L29.4906 32.883L28.0297 31.517L25.1497 34.597L26.6106 35.963ZM27.7602 32.2V48.08H29.7602V32.2H27.7602ZM50.3864 58H49.3864V59H50.3864V58ZM50.3864 30V29H49.3864V30H50.3864ZM68.9864 31.24L68.5716 32.15L68.5828 32.1549L68.9864 31.24ZM73.1864 34.72L72.3476 35.2645L73.1864 34.72ZM73.1864 45.56L74.0208 46.1113L74.0252 46.1045L73.1864 45.56ZM68.9864 49L69.39 49.9149L68.9864 49ZM53.9864 50.2L53.2843 49.488L51.5481 51.2H53.9864V50.2ZM56.8664 47.36H57.8664V44.9695L56.1643 46.648L56.8664 47.36ZM56.8664 58V59H57.8664V58H56.8664ZM68.1864 58L67.3629 58.5674L67.661 59H68.1864V58ZM61.1864 47.84V46.84H59.2831L60.3629 48.4074L61.1864 47.84ZM68.1064 47.84L68.9268 47.2683L68.6284 46.84H68.1064V47.84ZM75.1864 58V59H77.1021L76.0069 57.4283L75.1864 58ZM56.8664 48.08L56.1405 48.7677L57.8664 50.5896V48.08H56.8664ZM53.9864 45.04V44.04H51.6615L53.2605 45.7277L53.9864 45.04ZM66.6264 43.76L67.2806 44.5164L67.2863 44.5114L67.292 44.5063L66.6264 43.76ZM53.9864 35.28L53.256 34.597L51.6823 36.28H53.9864V35.28ZM56.8664 32.2H57.8664V29.6664L56.136 31.517L56.8664 32.2ZM51.3864 58V30H49.3864V58H51.3864ZM50.3864 31H62.5064V29H50.3864V31ZM62.5064 31C64.9057 31 66.9175 31.3958 68.5716 32.1499L69.4012 30.3301C67.4286 29.4308 65.1204 29 62.5064 29V31ZM68.5828 32.1549C70.2355 32.8841 71.4768 33.9229 72.3476 35.2645L74.0252 34.1755C72.9227 32.4771 71.364 31.1959 69.39 30.3251L68.5828 32.1549ZM72.3476 35.2645C73.2129 36.5974 73.6664 38.2145 73.6664 40.16H75.6664C75.6664 37.8922 75.1333 35.8826 74.0252 34.1755L72.3476 35.2645ZM73.6664 40.16C73.6664 42.076 73.2142 43.6806 72.3476 45.0155L74.0252 46.1045C75.132 44.3994 75.6664 42.4039 75.6664 40.16H73.6664ZM72.3521 45.0087C71.4823 46.3252 70.2401 47.3539 68.5828 48.0851L69.39 49.9149C71.3593 49.0461 72.9172 47.7815 74.0207 46.1113L72.3521 45.0087ZM68.5828 48.0851C66.9255 48.8162 64.9096 49.2 62.5064 49.2V51.2C65.1165 51.2 67.4206 50.7838 69.39 49.9149L68.5828 48.0851ZM62.5064 49.2H53.9864V51.2H62.5064V49.2ZM54.6886 50.912L57.5686 48.072L56.1643 46.648L53.2843 49.488L54.6886 50.912ZM55.8664 47.36V58H57.8664V47.36H55.8664ZM56.8664 57H50.3864V59H56.8664V57ZM69.0099 57.4326L62.0099 47.2726L60.3629 48.4074L67.3629 58.5674L69.0099 57.4326ZM61.1864 48.84H68.1064V46.84H61.1864V48.84ZM67.286 48.4117L74.366 58.5717L76.0069 57.4283L68.9268 47.2683L67.286 48.4117ZM75.1864 57H68.1864V59H75.1864V57ZM57.5924 47.3923L54.7124 44.3523L53.2605 45.7277L56.1405 48.7677L57.5924 47.3923ZM53.9864 46.04H62.1464V44.04H53.9864V46.04ZM62.1464 46.04C64.2638 46.04 66.0369 45.5919 67.2806 44.5164L65.9723 43.0036C65.2426 43.6347 64.029 44.04 62.1464 44.04V46.04ZM67.292 44.5063C68.5242 43.4073 69.1064 41.9179 69.1064 40.16H67.1064C67.1064 41.4421 66.7019 42.3527 65.9608 43.0137L67.292 44.5063ZM69.1064 40.16C69.1064 38.3823 68.5281 36.8826 67.2806 35.8036L65.9723 37.3164C66.6981 37.9441 67.1064 38.8444 67.1064 40.16H69.1064ZM67.2806 35.8036C66.0369 34.7281 64.2638 34.28 62.1464 34.28V36.28C64.029 36.28 65.2426 36.6853 65.9723 37.3164L67.2806 35.8036ZM62.1464 34.28H53.9864V36.28H62.1464V34.28ZM54.7168 35.963L57.5968 32.883L56.136 31.517L53.256 34.597L54.7168 35.963ZM55.8664 32.2V48.08H57.8664V32.2H55.8664ZM86.4405 57.4L86.0806 58.333L86.085 58.3347L86.4405 57.4ZM81.5605 54.36L80.8676 55.0811L80.8747 55.0878L81.5605 54.36ZM78.3605 49.76L77.4398 50.1506L77.4449 50.1623L78.3605 49.76ZM78.3605 38.24L77.4449 37.8377L77.4399 37.8494L78.3605 38.24ZM86.4805 30.6L86.1206 29.667H86.1206L86.4805 30.6ZM98.6405 30.6L98.2761 31.5313L98.2806 31.533L98.6405 30.6ZM103.48 33.64L102.788 34.3611L102.795 34.3678L103.48 33.64ZM106.72 38.24L105.805 38.6423L105.807 38.6474L106.72 38.24ZM106.72 49.8L107.636 50.2023L107.638 50.1972L106.72 49.8ZM103.48 54.4L104.166 55.1282L104.166 55.1278L103.48 54.4ZM98.6405 57.4L98.2806 56.467L98.2761 56.4688L98.6405 57.4ZM96.0005 52.32L95.6291 51.3915L95.6209 51.3948L96.0005 52.32ZM98.8005 50.48L98.0934 49.7729L98.8005 50.48ZM100.64 47.64L99.7167 47.257L99.7127 47.2667L99.7089 47.2765L100.64 47.64ZM100.64 40.36L99.7089 40.7235L99.7127 40.7333L99.7167 40.743L100.64 40.36ZM98.8005 37.52L98.0815 38.215L98.0874 38.2211L98.0934 38.2271L98.8005 37.52ZM96.0405 35.68L95.6691 36.6085L96.0405 35.68ZM89.0805 35.68L88.7091 34.7515L88.7009 34.7548L89.0805 35.68ZM86.3205 37.52L87.0276 38.2271L86.3205 37.52ZM84.4405 40.36L83.5167 39.977L83.5127 39.9867L83.5089 39.9965L84.4405 40.36ZM84.4405 47.64L83.506 47.996L83.5112 48.0096L83.5167 48.023L84.4405 47.64ZM86.2805 50.48L85.5615 51.175L85.5674 51.1811L85.5734 51.1871L86.2805 50.48ZM89.0805 52.32L88.7091 53.2485L89.0805 52.32ZM92.6005 57.48C90.4973 57.48 88.5656 57.1383 86.7959 56.4653L86.085 58.3347C88.102 59.1017 90.2769 59.48 92.6005 59.48V57.48ZM86.8003 56.467C85.0484 55.7913 83.5339 54.8456 82.2463 53.6322L80.8747 55.0878C82.3603 56.4877 84.0992 57.5687 86.0806 58.333L86.8003 56.467ZM82.2533 53.6389C80.9895 52.4247 79.9977 51.0003 79.276 49.3577L77.4449 50.1623C78.2699 52.0397 79.4114 53.682 80.8676 55.0811L82.2533 53.6389ZM79.281 49.3694C78.5912 47.7435 78.2405 45.9577 78.2405 44H76.2405C76.2405 46.2023 76.6364 48.2565 77.4399 50.1506L79.281 49.3694ZM78.2405 44C78.2405 42.0423 78.5912 40.2565 79.281 38.6306L77.4399 37.8494C76.6364 39.7435 76.2405 41.7977 76.2405 44H78.2405ZM79.276 38.6423C79.9958 37.004 80.9981 35.5816 82.2863 34.3678L80.9147 32.9122C79.4295 34.3117 78.2717 35.956 77.4449 37.8377L79.276 38.6423ZM82.2863 34.3678C83.5739 33.1544 85.0884 32.2087 86.8403 31.533L86.1206 29.667C84.1392 30.4313 82.4003 31.5123 80.9147 32.9122L82.2863 34.3678ZM86.8403 31.533C88.582 30.8612 90.4854 30.52 92.5605 30.52V28.52C90.2622 28.52 88.1123 28.8988 86.1206 29.667L86.8403 31.533ZM92.5605 30.52C94.664 30.52 96.5653 30.8618 98.2761 31.5312L99.0049 29.6688C97.0356 28.8982 94.8836 28.52 92.5605 28.52V30.52ZM98.2806 31.533C100.031 32.2081 101.529 33.152 102.788 34.3611L104.173 32.9189C102.712 31.5147 100.983 30.4319 99.0003 29.667L98.2806 31.533ZM102.795 34.3678C104.083 35.5816 105.085 37.004 105.805 38.6423L107.636 37.8377C106.809 35.956 105.651 34.3117 104.166 32.9122L102.795 34.3678ZM105.807 38.6474C106.517 40.2391 106.88 42.0182 106.88 44H108.88C108.88 41.7685 108.47 39.7076 107.634 37.8326L105.807 38.6474ZM106.88 44C106.88 45.9528 106.518 47.7499 105.803 49.4028L107.638 50.1972C108.469 48.2767 108.88 46.2072 108.88 44H106.88ZM105.805 49.3977C105.085 51.036 104.083 52.4584 102.795 53.6722L104.166 55.1278C105.651 53.7283 106.809 52.084 107.636 50.2023L105.805 49.3977ZM102.795 53.6718C101.536 54.8569 100.035 55.7902 98.2806 56.467L99.0003 58.333C100.979 57.5698 102.705 56.5031 104.166 55.1282L102.795 53.6718ZM98.2761 56.4688C96.5639 57.1387 94.6757 57.48 92.6005 57.48V59.48C94.8985 59.48 97.037 59.1013 99.0049 58.3312L98.2761 56.4688ZM92.5605 53.96C93.929 53.96 95.2065 53.7266 96.38 53.2452L95.6209 51.3948C94.7145 51.7667 93.6986 51.96 92.5605 51.96V53.96ZM96.3719 53.2485C97.5623 52.7723 98.6103 52.0844 99.5076 51.1871L98.0934 49.7729C97.3906 50.4756 96.572 51.0144 95.6291 51.3915L96.3719 53.2485ZM99.5076 51.1871C100.409 50.2857 101.097 49.2208 101.572 48.0035L99.7089 47.2765C99.3306 48.2459 98.7919 49.0743 98.0934 49.7729L99.5076 51.1871ZM101.564 48.023C102.074 46.7938 102.32 45.4482 102.32 44H100.32C100.32 45.2185 100.114 46.2995 99.7167 47.257L101.564 48.023ZM102.32 44C102.32 42.5518 102.074 41.2062 101.564 39.977L99.7167 40.743C100.114 41.7005 100.32 42.7815 100.32 44H102.32ZM101.572 39.9965C101.097 38.7792 100.409 37.7143 99.5076 36.8129L98.0934 38.2271C98.7919 38.9257 99.3306 39.7541 99.7089 40.7235L101.572 39.9965ZM99.5195 36.825C98.6448 35.9202 97.6052 35.2289 96.4119 34.7515L95.6691 36.6085C96.6091 36.9845 97.4095 37.5198 98.0815 38.215L99.5195 36.825ZM96.4119 34.7515C95.2167 34.2735 93.9294 34.04 92.5605 34.04V36.04C93.6982 36.04 94.7309 36.2332 95.6691 36.6085L96.4119 34.7515ZM92.5605 34.04C91.1915 34.04 89.9042 34.2735 88.7091 34.7515L89.4519 36.6085C90.3901 36.2332 91.4227 36.04 92.5605 36.04V34.04ZM88.7009 34.7548C87.5376 35.2321 86.5064 35.9198 85.6134 36.8129L87.0276 38.2271C87.7345 37.5201 88.5434 36.9812 89.46 36.6052L88.7009 34.7548ZM85.6134 36.8129C84.7163 37.7099 84.018 38.7681 83.5167 39.977L85.3642 40.743C85.7697 39.7652 86.3246 38.9301 87.0276 38.2271L85.6134 36.8129ZM83.5089 39.9965C83.0313 41.2203 82.8005 42.5591 82.8005 44H84.8005C84.8005 42.7743 84.9963 41.6863 85.372 40.7235L83.5089 39.9965ZM82.8005 44C82.8005 45.4173 83.0322 46.7525 83.506 47.996L85.375 47.284C84.9953 46.2875 84.8005 45.196 84.8005 44H82.8005ZM83.5167 48.023C84.015 49.2248 84.6955 50.2792 85.5615 51.175L86.9995 49.785C86.3188 49.0808 85.7726 48.2419 85.3642 47.257L83.5167 48.023ZM85.5734 51.1871C86.4706 52.0844 87.5187 52.7723 88.7091 53.2485L89.4519 51.3915C88.5089 51.0144 87.6903 50.4756 86.9876 49.7729L85.5734 51.1871ZM88.7091 53.2485C89.9042 53.7265 91.1915 53.96 92.5605 53.96V51.96C91.4227 51.96 90.3901 51.7668 89.4519 51.3915L88.7091 53.2485ZM31.713 98H30.713V99H31.713V98ZM31.713 75.28H32.713V74.28H31.713V75.28ZM22.753 75.28H21.753V76.28H22.753V75.28ZM22.753 70V69H21.753V70H22.753ZM47.153 70H48.153V69H47.153V70ZM47.153 75.28V76.28H48.153V75.28H47.153ZM38.193 75.28V74.28H37.193V75.28H38.193ZM38.193 98V99H39.193V98H38.193ZM32.713 98V75.28H30.713V98H32.713ZM31.713 74.28H22.753V76.28H31.713V74.28ZM23.753 75.28V70H21.753V75.28H23.753ZM22.753 71H47.153V69H22.753V71ZM46.153 70V75.28H48.153V70H46.153ZM47.153 74.28H38.193V76.28H47.153V74.28ZM37.193 75.28V98H39.193V75.28H37.193ZM38.193 97H31.713V99H38.193V97ZM44.7533 98L43.8399 97.5929L43.2127 99H44.7533V98ZM57.2333 70V69H56.5842L56.3199 69.5929L57.2333 70ZM63.6333 70L64.5462 69.5918L64.2816 69H63.6333V70ZM76.1533 98V99H77.6958L77.0662 97.5918L76.1533 98ZM69.3533 98L68.4294 98.3827L68.6851 99H69.3533V98ZM59.1133 73.28V72.28H57.6166L58.1894 73.6627L59.1133 73.28ZM61.6733 73.28L62.5966 73.664L63.1722 72.28H61.6733V73.28ZM51.3933 98V99H52.0604L52.3166 98.384L51.3933 98ZM50.9933 92L50.0493 91.67L49.5843 93H50.9933V92ZM52.7133 87.08V86.08H52.0035L51.7693 86.75L52.7133 87.08ZM67.1133 87.08L68.0548 86.7432L67.8176 86.08H67.1133V87.08ZM68.8733 92V93H70.2931L69.8148 91.6632L68.8733 92ZM45.6667 98.4071L58.1467 70.4071L56.3199 69.5929L43.8399 97.5929L45.6667 98.4071ZM57.2333 71H63.6333V69H57.2333V71ZM62.7204 70.4082L75.2404 98.4082L77.0662 97.5918L64.5462 69.5918L62.7204 70.4082ZM76.1533 97H69.3533V99H76.1533V97ZM70.2772 97.6173L60.0372 72.8973L58.1894 73.6627L68.4294 98.3827L70.2772 97.6173ZM59.1133 74.28H61.6733V72.28H59.1133V74.28ZM60.7499 72.896L50.4699 97.616L52.3166 98.384L62.5966 73.664L60.7499 72.896ZM51.3933 97H44.7533V99H51.3933V97ZM51.9373 92.33L53.6573 87.41L51.7693 86.75L50.0493 91.67L51.9373 92.33ZM52.7133 88.08H67.1133V86.08H52.7133V88.08ZM66.1717 87.4168L67.9317 92.3368L69.8148 91.6632L68.0548 86.7432L66.1717 87.4168ZM68.8733 91H50.9933V93H68.8733V91ZM85.2677 97.44L84.9033 98.3712L84.9113 98.3744L84.9195 98.3774L85.2677 97.44ZM80.4277 94.4L79.7348 95.1211L79.7419 95.1278L80.4277 94.4ZM77.2277 89.8L76.307 90.1906L76.3121 90.2023L77.2277 89.8ZM77.2277 78.2L76.3121 77.7977L76.3071 77.8094L77.2277 78.2ZM80.4677 73.6L81.1535 74.3278L80.4677 73.6ZM85.3477 70.6L85.6959 71.5375L85.7075 71.533L85.3477 70.6ZM98.1877 70.76L97.8013 71.6823L97.8057 71.6842L98.1877 70.76ZM103.228 74.36L103.906 75.0948L104.617 74.4383L103.984 73.706L103.228 74.36ZM99.0677 78.2L98.3427 78.8887L99.0216 79.6034L99.7459 78.9348L99.0677 78.2ZM95.7477 75.84L95.3415 76.7538L95.3501 76.7576L95.3587 76.7612L95.7477 75.84ZM85.1877 77.52L84.4922 76.8014L84.4863 76.8071L84.4805 76.8129L85.1877 77.52ZM83.3077 80.36L82.3839 79.977L82.3799 79.9867L82.3761 79.9965L83.3077 80.36ZM83.3077 87.6L82.3761 87.9635L82.3799 87.9733L82.3839 87.983L83.3077 87.6ZM85.1877 90.48L84.469 91.1754L84.4805 91.1872L84.4922 91.1986L85.1877 90.48ZM88.0677 92.32L87.7041 93.2516L87.7117 93.2545L88.0677 92.32ZM95.4677 92.36L95.7839 93.3088L95.7962 93.3045L95.4677 92.36ZM99.0277 90.24L99.8137 89.6219L99.1677 88.8003L98.3754 89.482L99.0277 90.24ZM102.708 94.92L103.31 95.7183L104.124 95.1039L103.494 94.3019L102.708 94.92ZM97.3877 97.56L97.098 96.6029L97.0945 96.6039L97.3877 97.56ZM96.7877 94.08H95.7877V94.9481L96.6472 95.0701L96.7877 94.08ZM96.7877 83.56V82.56H95.7877V83.56H96.7877ZM102.708 83.56H103.708V82.56H102.708V83.56ZM102.708 94.92L102.567 95.9101L103.708 96.0719V94.92H102.708ZM91.3877 97.48C89.28 97.48 87.3594 97.1502 85.6158 96.5026L84.9195 98.3774C86.9093 99.1165 89.0687 99.48 91.3877 99.48V97.48ZM85.632 96.5088C83.9067 95.8336 82.4035 94.8879 81.1135 93.6722L79.7419 95.1278C81.2251 96.5255 82.9486 97.6064 84.9033 98.3712L85.632 96.5088ZM81.1205 93.6789C79.8567 92.4647 78.8649 91.0403 78.1432 89.3977L76.3121 90.2023C77.1371 92.0797 78.2786 93.722 79.7348 95.1211L81.1205 93.6789ZM78.1482 89.4094C77.4591 87.785 77.1077 85.9862 77.1077 84H75.1077C75.1077 86.2271 75.5029 88.295 76.3071 90.1906L78.1482 89.4094ZM77.1077 84C77.1077 82.0138 77.4591 80.215 78.1482 78.5905L76.3071 77.8094C75.5029 79.705 75.1077 81.7729 75.1077 84H77.1077ZM78.1432 78.6023C78.863 76.964 79.8653 75.5416 81.1535 74.3278L79.7819 72.8722C78.2967 74.2717 77.1389 75.916 76.3121 77.7977L78.1432 78.6023ZM81.1535 74.3278C82.4384 73.117 83.9488 72.1863 85.6958 71.5374L84.9995 69.6626C83.0131 70.4004 81.2703 71.4697 79.7819 72.8722L81.1535 74.3278ZM85.7075 71.533C87.4465 70.8623 89.3761 70.52 91.5077 70.52V68.52C89.1592 68.52 86.9822 68.8977 84.9878 69.667L85.7075 71.533ZM91.5077 70.52C93.8759 70.52 95.9682 70.9144 97.8013 71.6823L98.574 69.8377C96.4604 68.9522 94.0994 68.52 91.5077 68.52V70.52ZM97.8057 71.6842C99.6675 72.4537 101.217 73.5635 102.471 75.014L103.984 73.706C102.518 72.0098 100.708 70.7196 98.5696 69.8358L97.8057 71.6842ZM102.549 73.6252L98.3894 77.4652L99.7459 78.9348L103.906 75.0948L102.549 73.6252ZM99.7927 77.5112C98.6968 76.3577 97.4789 75.4855 96.1366 74.9187L95.3587 76.7612C96.4164 77.2078 97.4119 77.909 98.3427 78.8887L99.7927 77.5112ZM96.1538 74.9262C94.8164 74.3318 93.3701 74.04 91.8277 74.04V76.04C93.1119 76.04 94.2789 76.2815 95.3415 76.7538L96.1538 74.9262ZM91.8277 74.04C90.3622 74.04 88.9996 74.2701 87.7517 74.7455L88.4636 76.6145C89.4557 76.2366 90.5731 76.04 91.8277 76.04V74.04ZM87.7517 74.7455C86.5105 75.2183 85.4203 75.9032 84.4922 76.8014L85.8831 78.2386C86.6083 77.5368 87.4648 76.995 88.4636 76.6145L87.7517 74.7455ZM84.4805 76.8129C83.5835 77.7099 82.8851 78.7682 82.3839 79.977L84.2314 80.743C84.6368 79.7652 85.1918 78.9301 85.8948 78.2271L84.4805 76.8129ZM82.3761 79.9965C81.8985 81.2203 81.6677 82.5591 81.6677 84H83.6677C83.6677 82.7743 83.8635 81.6863 84.2392 80.7235L82.3761 79.9965ZM81.6677 84C81.6677 85.417 81.8993 86.7419 82.3761 87.9635L84.2392 87.2365C83.8626 86.2714 83.6677 85.1964 83.6677 84H81.6677ZM82.3839 87.983C82.884 89.189 83.5791 90.2558 84.469 91.1754L85.9063 89.7846C85.1962 89.0508 84.638 88.1976 84.2314 87.217L82.3839 87.983ZM84.4922 91.1986C85.4163 92.0928 86.4897 92.7776 87.7041 93.2516L88.4312 91.3884C87.459 91.009 86.6124 90.4672 85.8831 89.7614L84.4922 91.1986ZM87.7117 93.2545C88.9574 93.7291 90.3063 93.96 91.7477 93.96V91.96C90.5223 91.96 89.4179 91.7643 88.4237 91.3855L87.7117 93.2545ZM91.7477 93.96C93.1338 93.96 94.4807 93.7431 95.7839 93.3087L95.1514 91.4113C94.0546 91.7769 92.9215 91.96 91.7477 91.96V93.96ZM95.7962 93.3045C97.1593 92.8304 98.4534 92.0533 99.6799 90.998L98.3754 89.482C97.3085 90.4 96.2293 91.0363 95.1391 91.4155L95.7962 93.3045ZM98.2416 90.8581L101.922 95.5381L103.494 94.3019L99.8137 89.6219L98.2416 90.8581ZM102.105 94.1217C100.689 95.1899 99.0245 96.0198 97.098 96.6029L97.6773 98.5171C99.8041 97.8735 101.686 96.9434 103.31 95.7183L102.105 94.1217ZM97.0945 96.6039C95.1851 97.1895 93.2838 97.48 91.3877 97.48V99.48C93.4915 99.48 95.5902 99.1572 97.6808 98.5161L97.0945 96.6039ZM97.7877 94.08V83.56H95.7877V94.08H97.7877ZM96.7877 84.56H102.708V82.56H96.7877V84.56ZM101.708 83.56V94.92H103.708V83.56H101.708ZM102.848 93.9299L96.9281 93.0899L96.6472 95.0701L102.567 95.9101L102.848 93.9299Z" fill="black" mask="url(#path-1-outside-1_87_401)"/>
</svg>
